<svg width="79" height="40" viewBox="0 0 79 40" fill="none" xmlns="http://www.w3.org/2000/svg">
    <path d="M47.2188 39.9963H3.93897C1.76108 39.9963 0 38.6582 0 37.0062V2.99382C0 1.34179 1.76108 0.00372314 3.93897 0.00372314H47.3165C47.0949 0.00372314 46.941 0.254145 47.0649 0.437288C48.7021 2.89664 58.311 16.6885 58.3448 20C58.3674 22.2089 48.7997 36.7894 46.9748 39.5477C46.8471 39.7421 46.9898 39.9963 47.2188 39.9963Z" fill="#DDFF33"/>
    <path d="M8.20455 32.1099C7.21323 32.1099 6.40967 31.3101 6.40967 30.3233V9.04134C6.40967 8.05461 7.21323 7.25476 8.20455 7.25476H22.1656C23.1569 7.25476 23.9604 8.05461 23.9604 9.04134V10.5812C23.9604 11.568 23.1569 12.3678 22.1656 12.3678H14.1261C13.1348 12.3678 12.3313 13.1677 12.3313 14.1544V15.1972C12.3313 16.1839 13.1348 16.9838 14.1261 16.9838H20.2918C21.2831 16.9838 22.0867 17.7836 22.0867 18.7704V19.9216C22.0867 20.9083 21.2831 21.7081 20.2918 21.7081H14.1261C13.1348 21.7081 12.3313 22.508 12.3313 23.4947V25.1617C12.3313 26.1484 13.1348 26.9483 14.1261 26.9483H22.3082C23.2996 26.9483 24.1031 27.7481 24.1031 28.7349V30.3308C24.1031 31.3176 23.2996 32.1174 22.3082 32.1174H8.20455V32.1099Z" fill="#363940"/>
    <path d="M42.9946 6.81366H40.5876C39.5963 6.81366 38.7928 7.61351 38.7928 8.60024V14.7785C38.7928 15.014 38.5262 15.1523 38.3347 15.014C37.9892 14.7636 37.625 14.5468 37.2457 14.3636C36.153 13.8329 34.9326 13.5675 33.5733 13.5675C32.214 13.5675 31.0838 13.803 29.9949 14.2777C28.9022 14.7486 27.9597 15.4139 27.1598 16.2661C26.3713 17.1108 25.7555 18.0975 25.3162 19.2263C24.8768 20.3588 24.6553 21.5847 24.6553 22.9116C24.6553 24.7804 25.0383 26.4212 25.8043 27.8266C26.5666 29.2244 27.618 30.3158 28.951 31.1007C30.284 31.8707 31.7897 32.2594 33.472 32.2594C35.1542 32.2594 36.6074 31.908 37.8015 31.2016C38.2821 30.9138 38.7064 30.5961 39.0744 30.2411C39.2621 30.0616 39.5738 30.185 39.5738 30.4429C39.5738 31.1605 40.1558 31.7398 40.8768 31.7398H42.9946C43.8207 31.7398 44.4966 31.0708 44.4966 30.2448V8.31244C44.4966 7.48643 43.8207 6.8174 42.9946 6.8174V6.81366ZM38.252 25.2812C37.8803 25.9503 37.3734 26.4698 36.7238 26.8398C36.0742 27.1949 35.3419 27.3743 34.5309 27.3743C33.7198 27.3743 32.9913 27.1949 32.3417 26.8398C31.6921 26.4698 31.1739 25.9503 30.7947 25.2812C30.4229 24.6122 30.2352 23.8198 30.2352 22.9078C30.2352 21.9959 30.4229 21.196 30.7947 20.5382C31.1627 19.8692 31.6733 19.3571 32.3229 18.9983C32.9725 18.6283 33.7085 18.4451 34.5309 18.4451C35.3532 18.4451 36.0892 18.6283 36.7388 18.9983C37.3884 19.3571 37.8916 19.8692 38.252 20.5382C38.6238 21.196 38.8078 21.9847 38.8078 22.9078C38.8078 23.831 38.6238 24.6122 38.252 25.2812Z" fill="#363940"/>
    <path d="M66.5721 20C66.5721 24.3394 57.5488 38.6844 57.5488 38.6844L57.5413 38.6956C57.4061 38.8638 57.2597 39.0207 57.0982 39.159H57.0945C57.0457 39.2001 56.9931 39.2338 56.9405 39.2674C56.888 39.3048 56.8354 39.3384 56.7791 39.3683C56.7002 39.4169 56.6251 39.458 56.5425 39.4992C56.505 39.5178 56.4674 39.5365 56.4299 39.5515C56.3848 39.5739 56.336 39.5963 56.2872 39.6150C56.2233 39.6449 56.1595 39.6711 56.0957 39.6935C55.5737 39.8879 54.9879 39.9963 54.3684 39.9963H47.2189C46.9861 39.9963 46.8472 39.7384 46.9748 39.5477C48.796 36.7894 58.3674 22.2089 58.3449 20C58.3111 16.6885 47.478 1.16239 47.0649 0.437288C46.956 0.242932 47.095 0.00372314 47.3203 0.00372314H54.8715C55.7014 0.00372314 56.4899 0.306469 57.0982 0.837211H57.102C57.2635 0.97924 57.4099 1.13622 57.5451 1.30441L57.5526 1.31563C57.6427 1.43149 57.7253 1.55484 57.8004 1.68565C57.8004 1.68565 66.5796 16.1017 66.5796 20H66.5721Z" fill="#363940"/>
    <path d="M77.2059 39.9963H70.5258C70.2028 39.9963 69.9062 39.8244 69.7447 39.5478L67.3941 35.4962L67.0562 34.9169C66.8947 34.6403 66.8947 34.2964 67.0562 34.0198L67.3941 33.4405L70.2892 28.4471C71.0252 27.1763 72.8689 27.1763 73.6086 28.4471L78.7567 37.3202C79.4476 38.5087 78.5839 40 77.2021 40L77.2059 39.9963Z" fill="#363940"/>
    <path d="M77.2059 0.00373557H70.5258C70.2028 0.00373557 69.9062 0.175665 69.7447 0.452249L67.3941 4.50383L67.0562 5.08316C66.8947 5.35974 66.8947 5.70361 67.0562 5.98019L67.3941 6.55952L70.2892 11.553C71.0252 12.8238 72.8689 12.8238 73.6086 11.553L78.7567 2.67987C79.4476 1.49131 78.5839 0 77.2021 0L77.2059 0.00373557Z" fill="#363940"/>
</svg>
