<svg width="79" height="40" viewBox="0 0 79 40" fill="none" xmlns="http://www.w3.org/2000/svg">
    <g clipPath="url(#clip0_1462_9133)">
      <path d="M47.2188 39.9965H3.93897C1.76108 39.9965 0 38.6584 0 37.0064V2.994C0 1.34197 1.76108 0.00390625 3.93897 0.00390625H47.3165C47.0949 0.00390625 46.941 0.254328 47.0649 0.437471C48.7021 2.89682 58.311 16.6887 58.3448 20.0002C58.3674 22.2091 48.7997 36.7896 46.9748 39.5479C46.8471 39.7423 46.9898 39.9965 47.2188 39.9965Z" fill="#DDFF33"/>
      <path d="M8.20455 32.109C7.21323 32.109 6.40967 31.3092 6.40967 30.3224V9.04049C6.40967 8.05376 7.21323 7.25391 8.20455 7.25391H22.1656C23.1569 7.25391 23.9604 8.05376 23.9604 9.04049V10.5803C23.9604 11.5671 23.1569 12.3669 22.1656 12.3669H14.1261C13.1348 12.3669 12.3313 13.1668 12.3313 14.1535V15.1963C12.3313 16.183 13.1348 16.9829 14.1261 16.9829H20.2918C21.2831 16.9829 22.0867 17.7827 22.0867 18.7695V19.9207C22.0867 20.9074 21.2831 21.7072 20.2918 21.7072H14.1261C13.1348 21.7072 12.3313 22.5071 12.3313 23.4938V25.1608C12.3313 26.1475 13.1348 26.9474 14.1261 26.9474H22.3082C23.2996 26.9474 24.1031 27.7472 24.1031 28.734V30.3299C24.1031 31.3167 23.2996 32.1165 22.3082 32.1165H8.20455V32.109Z" fill="#363940"/>
      <path d="M42.9946 6.81445H40.5876C39.5963 6.81445 38.7928 7.6143 38.7928 8.60103V14.7793C38.7928 15.0148 38.5262 15.1531 38.3347 15.0148C37.9892 14.7644 37.625 14.5476 37.2457 14.3644C36.153 13.8337 34.9326 13.5683 33.5733 13.5683C32.214 13.5683 31.0838 13.8038 29.9949 14.2785C28.9022 14.7494 27.9597 15.4147 27.1598 16.2669C26.3713 17.1116 25.7555 18.0983 25.3162 19.2271C24.8768 20.3596 24.6553 21.5855 24.6553 22.9124C24.6553 24.7812 25.0383 26.422 25.8043 27.8274C26.5666 29.2252 27.618 30.3166 28.951 31.1015C30.284 31.8715 31.7897 32.2602 33.472 32.2602C35.1542 32.2602 36.6074 31.9088 37.8015 31.2024C38.2821 30.9146 38.7064 30.5969 39.0744 30.2419C39.2621 30.0624 39.5738 30.1858 39.5738 30.4437C39.5738 31.1613 40.1558 31.7406 40.8768 31.7406H42.9946C43.8207 31.7406 44.4966 31.0716 44.4966 30.2456V8.31323C44.4966 7.48722 43.8207 6.81819 42.9946 6.81819V6.81445ZM38.252 25.282C37.8803 25.9511 37.3734 26.4706 36.7238 26.8406C36.0742 27.1957 35.3419 27.3751 34.5309 27.3751C33.7198 27.3751 32.9913 27.1957 32.3417 26.8406C31.6921 26.4706 31.1739 25.9511 30.7947 25.282C30.4229 24.613 30.2352 23.8206 30.2352 22.9086C30.2352 21.9967 30.4229 21.1968 30.7947 20.539C31.1627 19.87 31.6733 19.3579 32.3229 18.9991C32.9725 18.6291 33.7085 18.4459 34.5309 18.4459C35.3532 18.4459 36.0892 18.6291 36.7388 18.9991C37.3884 19.3579 37.8916 19.87 38.252 20.539C38.6238 21.1968 38.8078 21.9855 38.8078 22.9086C38.8078 23.8318 38.6238 24.613 38.252 25.282Z" fill="#363940"/>
      <path d="M66.5721 20.0002C66.5721 24.3396 57.5488 38.6846 57.5488 38.6846L57.5413 38.6958C57.4061 38.864 57.2597 39.0209 57.0982 39.1592H57.0945C57.0457 39.2003 56.9931 39.234 56.9405 39.2676C56.888 39.305 56.8354 39.3386 56.7791 39.3685C56.7002 39.4171 56.6251 39.4582 56.5425 39.4994C56.505 39.518 56.4674 39.5367 56.4299 39.5517C56.3848 39.5741 56.336 39.5965 56.2872 39.6152C56.2233 39.6451 56.1595 39.6713 56.0957 39.6937C55.5737 39.8881 54.9879 39.9965 54.3684 39.9965H47.2189C46.9861 39.9965 46.8472 39.7386 46.9748 39.5479C48.796 36.7896 58.3674 22.2091 58.3449 20.0002C58.3111 16.6887 47.478 1.16257 47.0649 0.437471C46.956 0.243115 47.095 0.00390625 47.3203 0.00390625H54.8715C55.7014 0.00390625 56.4899 0.306652 57.0982 0.837394H57.102C57.2635 0.979423 57.4099 1.1364 57.5451 1.30459L57.5526 1.31581C57.6427 1.43167 57.7253 1.55502 57.8004 1.68583C57.8004 1.68583 66.5796 16.1019 66.5796 20.0002H66.5721Z" fill="white"/>
      <path d="M77.2059 39.9964H70.5258C70.2028 39.9964 69.9062 39.8245 69.7447 39.5479L67.3941 35.4963L67.0562 34.917C66.8947 34.6404 66.8947 34.2965 67.0562 34.0199L67.3941 33.4406L70.2892 28.4472C71.0252 27.1764 72.8689 27.1764 73.6086 28.4472L78.7567 37.3203C79.4476 38.5088 78.5839 40.0001 77.2021 40.0001L77.2059 39.9964Z" fill="white"/>
      <path d="M77.2059 0.00373557H70.5258C70.2028 0.00373557 69.9062 0.175665 69.7447 0.452249L67.3941 4.50383L67.0562 5.08316C66.8947 5.35974 66.8947 5.70361 67.0562 5.98019L67.3941 6.55952L70.2892 11.553C71.0252 12.8238 72.8689 12.8238 73.6086 11.553L78.7567 2.67987C79.4476 1.49131 78.5839 0 77.2021 0L77.2059 0.00373557Z" fill="white"/>
    </g>
    <defs>
      <clipPath id="clip0_1462_9133">
        <rect width="79" height="40" fill="white"/>
      </clipPath>
    </defs>
</svg>
